<?xml version="1.0" standalone="no"?>
<!DOCTYPE svg PUBLIC "-//W3C//DTD SVG 20010904//EN"
 "http://www.w3.org/TR/2001/REC-SVG-20010904/DTD/svg10.dtd">
<svg version="1.0" xmlns="http://www.w3.org/2000/svg"
 width="2240.000000pt" height="2240.000000pt" viewBox="0 0 2240.000000 2240.000000"
 preserveAspectRatio="xMidYMid meet">

<g transform="translate(0.000000,2240.000000) scale(0.100000,-0.100000)"
fill="#000000" stroke="none">
<path d="M3145 22389 c-1093 -83 -2081 -689 -2650 -1624 -250 -412 -407 -867
-472 -1370 -17 -134 -18 -494 -18 -8195 0 -7701 1 -8061 18 -8195 103 -796
442 -1486 998 -2031 278 -271 556 -467 904 -635 401 -194 799 -298 1260 -329
114 -8 2475 -10 8125 -8 7284 3 7975 5 8080 20 609 86 1063 256 1528 574 191
130 312 232 492 413 555 558 874 1231 972 2046 19 163 19 16127 0 16290 -98
815 -417 1488 -972 2046 -180 181 -301 283 -492 413 -464 317 -921 489 -1523
573 -112 16 -679 17 -8130 19 -4405 1 -8059 -2 -8120 -7z m13455 -4648 c761
-85 1310 -244 1758 -509 467 -278 786 -669 951 -1169 95 -285 131 -508 131
-806 0 -548 -134 -1046 -450 -1672 -372 -736 -795 -1301 -1499 -2005 -606
-606 -1209 -1088 -2046 -1639 -682 -448 -1260 -783 -1914 -1111 -1290 -645
-2608 -1115 -3698 -1319 -695 -130 -1311 -138 -1823 -25 -440 98 -762 256
-995 489 -186 185 -298 394 -355 663 -30 139 -38 416 -16 578 55 415 240 839
594 1359 698 1027 1667 1816 3142 2559 897 452 1710 694 2605 776 211 19 591
31 750 24 l160 -7 -228 -33 c-1116 -161 -2030 -516 -2987 -1162 -920 -621
-1512 -1269 -1794 -1962 -174 -429 -206 -791 -96 -1092 217 -593 871 -872
1985 -845 757 19 1520 162 2225 419 1146 417 2368 1152 3287 1975 1008 904
1789 2072 2098 3139 133 458 161 945 79 1354 -85 422 -303 794 -622 1061 -452
377 -1061 584 -1880 639 -196 13 -648 13 -862 0 -735 -45 -1443 -166 -2124
-364 -1826 -531 -3465 -1413 -5186 -2791 -729 -584 -1291 -1127 -1942 -1876
-858 -988 -1483 -1975 -1876 -2960 -120 -300 -232 -720 -287 -1076 -144 -933
63 -1713 594 -2242 828 -826 2448 -1108 4601 -800 1712 244 3373 851 5288
1931 28 17 52 28 52 25 0 -8 -526 -323 -750 -449 -1591 -900 -3066 -1474
-4580 -1783 -290 -59 -774 -138 -1065 -175 -1744 -219 -3197 26 -4083 690
-497 372 -818 876 -946 1488 -49 233 -58 355 -53 685 4 266 7 321 31 462 215
1303 711 2346 1756 3689 860 1106 1777 1970 3205 3021 875 644 1943 1249 3055
1732 1384 602 2731 961 4120 1098 396 39 499 43 1000 41 429 -3 521 -6 690
-25z m65 -3577 c-132 -261 -237 -475 -234 -478 8 -7 268 -26 649 -46 212 -12
435 -25 495 -30 61 -6 123 -10 140 -10 17 0 25 -4 20 -9 -18 -16 -518 -193
-1069 -377 l-549 -183 -151 -294 c-83 -161 -207 -402 -276 -535 l-125 -241
-22 27 c-12 15 -64 91 -115 170 -256 393 -331 504 -343 508 -7 3 -365 -114
-796 -260 -430 -146 -784 -265 -785 -263 -1 1 57 45 130 97 72 51 325 236 561
410 237 174 471 345 522 380 51 36 92 70 93 76 0 6 -68 119 -151 250 -84 131
-176 278 -205 327 l-54 87 38 0 c20 0 129 -7 242 -15 113 -8 309 -17 435 -20
127 -3 281 -13 343 -21 64 -9 131 -13 157 -10 62 10 147 68 440 302 594 475
838 661 844 643 2 -7 -103 -225 -234 -485z m-2405 -6878 c0 -2 -7 -7 -16 -10
-8 -3 -12 -2 -9 4 6 10 25 14 25 6z"/>
</g>
</svg>
